#!OML:ASF E:\acrobat2\Project_11_07_03\Capture day 1\Session 1\Acrobat.ASF
:FULLY-SPECIFIED
:DEGREES
391
root 8.34599 15.7462 -12.7172 94.6238 13.333 -40.0902
lowerback 10.3011 -1.69662 -3.19069
upperback -3.52169e-005 -3.08961 -7.10032
thorax -6.03708 -1.53389 -5.23759
lowerneck -0.711752 -2.51995 4.85476
upperneck -35.0721 -4.23324 -0.125155
head -11.4078 -2.60469 -0.507622
rclavicle -1.59028e-014 9.54166e-015
rhumerus 78.6444 -34.8544 -35.7031
rradius 49.8765
rwrist -9.3817
rhand -27.6698 -48.8614
rfingers 7.12502
rthumb -1.06696 -78.8385
lclavicle -1.59028e-014 9.54166e-015
lhumerus 64.4584 22.5016 50.3693
lradius 31.1044
lwrist 20.9076
lhand -56.8312 -39.4749
lfingers 7.12502
lthumb -29.1303 -11.7337
rfemur 1.79349 -0.732311 15.8175
rtibia 12.5174
rfoot 24.5373 -28.9605
rtoes 24.6247
lfemur -79.3775 35.7879 18.1553
ltibia 46.9896
lfoot -28.5018 -9.42475
ltoes 46.9689
392
root 8.32374 15.8103 -12.3448 96.0922 15.3528 -40.9027
lowerback 9.5307 -1.88154 -2.95125
upperback -0.128692 -3.23643 -6.82042
thorax -5.7421 -1.60795 -5.06388
lowerneck -0.858726 -2.88156 4.60157
upperneck -35.7858 -4.91827 -0.0756409
head -11.687 -2.89229 -0.37654
rclavicle 5.40694e-014 -3.49861e-014
rhumerus 80.2889 -34.2796 -37.0172
rradius 49.8407
rwrist -6.55653
rhand -28.2329 -48.4195
rfingers 7.12502
rthumb -1.61085 -78.3932
lclavicle 5.40694e-014 -3.49861e-014
lhumerus 63.1723 23.4392 48.8728
lradius 33.8579
lwrist 22.4771
lhand -56.5301 -44.0859
lfingers 7.12502
lthumb -28.8427 -16.2952
rfemur 2.97143 -0.189735 15.2077
rtibia 12.9028
rfoot 23.3217 -30.9375
rtoes 28.0347
lfemur -75.3908 36.2091 22.7681
ltibia 42.7602
lfoot -28.4041 -6.91063
ltoes 46.0927
393
root 8.29846 15.8822 -11.9783 97.7107 17.6915 -41.602
lowerback 8.60841 -1.99454 -2.34846
upperback -0.391129 -3.26407 -6.57755
thorax -5.51648 -1.63833 -5.16227
lowerneck -0.559552 -3.3696 4.43694
upperneck -36.5351 -5.67488 0.277416
head -12.0689 -3.25749 -0.121543
rclavicle 6.04305e-014 -6.36111e-015
rhumerus 81.2543 -34.3941 -37.5504
rradius 49.6613
rwrist -4.23507
rhand -28.4531 -48.3004
rfingers 7.12502
rthumb -1.82352 -78.2724
lclavicle 6.04305e-014 -6.36111e-015
lhumerus 64.7415 23.8734 51.1069
lradius 34.213
lwrist 19.667
lhand -57.0305 -47.8761
lfingers 7.12502
lthumb -29.3206 -20.168
rfemur 3.95682 0.74712 14.9656
rtibia 13.084
rfoot 19.3592 -34.0728
rtoes 37.2692
lfemur -70.9011 36.3947 28.1752
ltibia 37.8829
lfoot -28.6316 -4.19831
ltoes 45.303
394
root 8.26899 15.9686 -11.5998 99.255 19.6629 -42.173
lowerback 7.92568 -1.87177 -2.26958
upperback -0.787611 -3.08582 -6.58704
thorax -5.53924 -1.55924 -5.25716
lowerneck -0.0418468 -3.90686 3.94214
upperneck -36.677 -6.38917 0.851341
head -12.2078 -3.57967 0.273373
rclavicle 1.01778e-013 1.27222e-014
rhumerus 79.4523 -36.6075 -34.8131
rradius 50.029
rwrist -4.87019
rhand -28.8861 -48.7287
rfingers 7.12502
rthumb -2.24168 -78.6967
lclavicle 1.01778e-013 1.27222e-014
lhumerus 65.8651 23.6537 52.8163
lradius 34.6784
lwrist 16.3696
lhand -57.6173 -50.6789
lfingers 7.12502
lthumb -29.8808 -23.0701
rfemur 4.8075 0.60136 14.27
rtibia 13.739
rfoot 21.0616 -33.9418
rtoes 35.1222
lfemur -65.6985 35.7925 33.7987
ltibia 32.265
lfoot -29.2272 -0.891821
ltoes 45.2274
395
root 8.23315 16.0629 -11.2059 100.781 21.6333 -42.5439
lowerback 7.29109 -2.12288 -2.42375
upperback -1.03699 -3.38678 -6.2261
thorax -5.43112 -1.69589 -4.76051
lowerneck 0.220875 -4.26469 3.216
upperneck -37.1711 -6.92314 1.41387
head -12.4254 -3.77932 0.687115
rclavicle -1.90833e-014 -2.54444e-014
rhumerus 81.6645 -35.607 -37.0439
rradius 49.5823
rwrist -1.28177
rhand -29.5721 -48.2623
rfingers 7.12502
rthumb -2.90426 -78.2223
lclavicle -1.90833e-014 -2.54444e-014
lhumerus 66.3646 24.56 54.8769
lradius 35.5043
lwrist 12.542
lhand -57.6349 -51.698
lfingers 7.12502
lthumb -29.8975 -24.0923
rfemur 5.9629 1.75247 13.7998
rtibia 13.8106
rfoot 11.5161 -38.6786
rtoes 47.1956
lfemur -59.7776 34.1587 40.0813
ltibia 25.7592
lfoot -30.2481 4.17164
ltoes 43.8197
396
root 8.19176 16.1604 -10.813 102.398 23.944 -42.6747
lowerback 6.43977 -2.36451 -2.04735
upperback -1.21447 -3.61645 -5.88736
thorax -5.14817 -1.81613 -4.61127
lowerneck -2.01007 -4.63646 -2.98872
upperneck -34.6249 -6.36899 6.19032
head -10.4438 -3.28183 3.26969
rclavicle 5.40694e-014 -8.90555e-014
rhumerus 83.5237 -34.5125 -39.2559
rradius 49.2655
rwrist 2.31652
rhand -29.9662 -48.0115
rfingers 7.12502
rthumb -3.28484 -77.966
lclavicle 5.40694e-014 -8.90555e-014
lhumerus 69.1419 24.6586 58.6679
lradius 34.8517
lwrist 7.52795
lhand -57.9436 -53.0414
lfingers 7.12502
lthumb -30.1921 -25.4891
rfemur 6.97708 0.90072 13.5366
rtibia 14.0812
rfoot 20.374 -35.7479
rtoes 36.5246
lfemur -52.9926 31.0054 47.7468
ltibia 18.0123
lfoot -33.2987 7.28417
ltoes 49.2552
397
root 8.14853 16.2616 -10.4208 104.042 26.4101 -42.5753
lowerback 5.50779 -2.37329 -1.14099
upperback -1.34981 -3.53209 -6.03259
thorax -4.82078 -1.80838 -5.31954
lowerneck -1.00756 -5.54425 -4.71377
upperneck -34.4142 -7.37902 8.1919
head -10.2946 -3.79444 4.37816
rclavicle -2.54444e-013 -1.90833e-014
rhumerus 83.6369 -34.4258 -40.5835
rradius 49.1258
rwrist 5.2571
rhand -30.1397 -48.166
rfingers 7.12502
rthumb -3.45241 -78.1178
lclavicle -2.54444e-013 -1.90833e-014
lhumerus 72.9903 23.1631 62.081
lradius 33.5798
lwrist 2.78356
lhand -58.3181 -54.8137
lfingers 7.12502
lthumb -30.5492 -27.3273
rfemur 8.17602 0.37731 13.5004
rtibia 14.1712
rfoot 24.7031 -33.7401
rtoes 28.6388
lfemur -45.4682 24.7165 57.1865
ltibia 8.96818
lfoot -40.6767 9.75806
ltoes 53.5811
398
root 8.10514 16.3638 -10.0252 105.729 28.7149 -42.2502
lowerback 4.626 -2.47338 -0.262692
upperback -1.44775 -3.59099 -6.25465
thorax -4.49976 -1.86874 -6.08221
lowerneck -0.866764 -5.98991 -4.07876
upperneck -34.1103 -8.20688 7.58502
head -10.2138 -4.19507 4.09116
rclavicle 3.49861e-014 -4.13472e-014
rhumerus 83.4856 -35.3853 -40.9771
rradius 48.7161
rwrist 6.71578
rhand -30.3251 -48.3282
rfingers 7.12502
rthumb -3.63145 -78.277
lclavicle 3.49861e-014 -4.13472e-014
lhumerus 77.7964 21.1509 65.815
lradius 31.1235
lwrist -2.84063
lhand -58.3196 -56.5791
lfingers 7.12502
lthumb -30.5507 -29.093
rfemur 9.52173 0.671922 13.453
rtibia 13.6344
rfoot 25.5288 -33.896
rtoes 27.7438
lfemur -38.0452 10.9636 69.6081
ltibia -1.66363
lfoot -57.5589 8.81167
ltoes 56.6042
399
root 8.06372 16.4649 -9.63413 107.5 30.8532 -41.6571
lowerback 3.9074 -2.67856 0.35818
upperback -1.61094 -3.81854 -6.27879
thorax -4.33162 -2.0025 -6.46916
lowerneck 1.23435 -6.57813 1.86338
upperneck -36.3265 -9.91652 4.05193
head -12.0354 -5.29602 2.22428
rclavicle -1.27222e-014 -3.18055e-015
rhumerus 83.8099 -35.7863 -41.8114
rradius 48.0606
rwrist 8.51974
rhand -30.6554 -48.4352
rfingers 7.12502
rthumb -3.95041 -78.3783
lclavicle -1.27222e-014 -3.18055e-015
lhumerus 80.8847 19.8001 67.2364
lradius 29.2557
lwrist -6.40618
lhand -58.2801 -58.1232
lfingers 7.12502
lthumb -30.513 -30.63
rfemur 10.8828 0.967459 13.3346
rtibia 13.0661
rfoot 25.7995 -34.4242
rtoes 27.3975
lfemur -60.0358 50.382 22.5665
ltibia 3.88217
lfoot -4.44616 12.3321
ltoes 59.6591
400
root 8.02504 16.5667 -9.25326 109.351 32.9948 -41.0057
lowerback 3.19767 -2.78142 1.05702
upperback -1.8074 -3.92052 -6.32958
thorax -4.20037 -2.07904 -6.94423
lowerneck 1.28864 -7.11922 1.62923
upperneck -36.0465 -10.6253 4.60417
head -11.8621 -5.66029 2.52031
rclavicle 4.77083e-014 1.59028e-014
rhumerus 80.7336 -38.9174 -38.0849
rradius 48.4564
rwrist 5.82035
rhand -30.7545 -48.9512
rfingers 7.12502
rthumb -4.04604 -78.8926
lclavicle 4.77083e-014 1.59028e-014
lhumerus 80.9904 19.2623 65.1405
lradius 29.4352
lwrist -6.4282
lhand -58.5064 -58.6274
lfingers 7.12502
lthumb -30.7288 -31.1746
rfemur 12.0962 1.70616 13.401
rtibia 12.4751
rfoot 26.2135 -34.3266
rtoes 25.5083
lfemur -133.388 44.5037 -68.694
ltibia 9.63269
lfoot 53.8444 23.7785
ltoes 61.0463
